<svg width="321" height="253" viewBox="0 0 321 253" fill="none" xmlns="http://www.w3.org/2000/svg">
<path d="M3 187.529C3 153.558 30.5385 126.02 64.509 126.02H129.746V249.038H64.509C30.5385 249.038 3 221.499 3 187.529Z" fill="#71C23E" stroke="#121214" stroke-width="6"/>
<path d="M191.254 187.65C191.254 153.68 218.792 126.02 252.763 126.02H318V183.558C318 219.721 288.683 249.038 252.52 249.038C218.684 249.038 191.254 221.487 191.254 187.65Z" fill="#01A6BC" stroke="#121214" stroke-width="6"/>
<path d="M129.746 64.6308C129.746 30.6603 102.208 3 68.2371 3H3.00027V60.5381C3.00027 96.7016 32.3166 126.018 68.4802 126.018C102.316 126.018 129.746 98.467 129.746 64.6308Z" fill="#FA547C" stroke="#121214" stroke-width="6"/>
<path d="M252.764 64.509C252.764 98.4796 225.226 126.018 191.255 126.018C157.285 126.018 129.746 98.4796 129.746 64.509C129.746 30.5385 157.285 3 191.255 3C225.226 3 252.764 30.5385 252.764 64.509Z" fill="#FAA525" stroke="#121214" stroke-width="6"/>
<path d="M318 64.509C318 30.5385 290.461 3 256.491 3H191.254V126.018H256.491C290.461 126.018 318 98.4795 318 64.509Z" fill="#FFD800" stroke="#121214" stroke-width="6"/>
<path d="M191.252 187.529C191.252 221.499 163.714 249.038 129.743 249.038C95.7729 249.038 68.2344 221.499 68.2344 187.529C68.2344 153.558 95.7729 126.02 129.743 126.02C163.714 126.02 191.252 153.558 191.252 187.529Z" fill="#121214" stroke="#121214" stroke-width="6"/>
</svg>
