<svg width="519" height="334" viewBox="0 0 519 334" fill="none" xmlns="http://www.w3.org/2000/svg">
<path d="M515 144V194L4 194L4 144L515 144Z" fill="white"/>
<path d="M259.914 4.0009C295.203 3.87713 338.016 16.5664 370.652 28.4353C387.258 34.4748 401.785 40.5115 412.163 45.0409C417.358 47.308 421.53 49.2059 424.419 50.5433C425.864 51.2119 426.991 51.7411 427.765 52.1084C428.153 52.2921 428.453 52.4353 428.661 52.535C428.765 52.5847 428.845 52.6254 428.902 52.6531C428.931 52.6667 428.954 52.6777 428.971 52.6859C428.979 52.69 428.988 52.6931 428.993 52.6957L429 52.699C428.997 52.7123 428.798 53.1339 421.771 67.838C414.577 82.8911 414.537 82.976 414.538 82.977L414.535 82.9738C414.528 82.9705 414.514 82.9629 414.496 82.9541C414.459 82.9363 414.399 82.908 414.317 82.8688C414.152 82.7896 413.896 82.6668 413.554 82.5046C412.87 82.1798 411.838 81.6967 410.492 81.074C407.799 79.8276 403.85 78.0302 398.901 75.8702C388.99 71.5451 375.124 65.7829 359.321 60.0356C327.133 48.3295 289.045 37.4978 260.031 37.5994C230.939 37.7014 192.791 48.5618 160.601 60.2127C144.788 65.936 130.914 71.6628 120.998 75.9555C116.048 78.0987 112.098 79.8774 109.404 81.1134C108.057 81.7312 107.024 82.2151 106.338 82.5374C105.995 82.6985 105.738 82.8196 105.572 82.8983C105.49 82.9375 105.43 82.966 105.393 82.9836C105.375 82.9924 105.361 82.9967 105.354 83H105.348C105.324 82.9464 104.914 82.0762 98.1738 67.838C91.2704 53.2544 91.0076 52.6953 91 52.6728L91.0065 52.6695C91.012 52.6669 91.0209 52.6637 91.0293 52.6596C91.0462 52.6516 91.0691 52.6405 91.0977 52.6268C91.155 52.5995 91.2353 52.5579 91.3388 52.5087C91.5461 52.4103 91.8453 52.2702 92.2315 52.0887C93.0051 51.7252 94.1298 51.1992 95.574 50.5368C98.4619 49.2121 102.631 47.3349 107.824 45.0869C118.198 40.5953 132.72 34.6039 149.319 28.596C181.952 16.785 224.703 4.12452 259.914 4.0009Z" fill="white"/>
<path d="M260.083 329.999C224.926 330.112 182.159 318.518 149.434 307.617C132.803 302.077 118.253 296.539 107.856 292.383C102.653 290.303 98.4759 288.564 95.5823 287.337C94.1356 286.724 93.0095 286.236 92.2346 285.9C91.8476 285.732 91.5472 285.602 91.3397 285.51C91.2363 285.465 91.1552 285.429 91.098 285.403L91.0065 285.364L91 285.361L104.639 255.023C104.639 255.023 104.643 255.025 104.646 255.026C104.653 255.029 104.666 255.034 104.685 255.042C104.722 255.059 104.782 255.087 104.865 255.123C105.031 255.196 105.288 255.308 105.632 255.458C106.321 255.757 107.357 256.202 108.709 256.775C111.412 257.921 115.376 259.572 120.343 261.558C130.287 265.533 144.203 270.83 160.065 276.114C192.327 286.86 230.664 296.867 259.972 296.773C289.354 296.679 327.748 286.648 360.013 275.951C375.885 270.69 389.809 265.429 399.759 261.483C404.727 259.513 408.691 257.876 411.396 256.739C412.748 256.171 413.786 255.728 414.476 255.432C414.82 255.283 415.077 255.17 415.243 255.097C415.326 255.061 415.389 255.036 415.426 255.019C415.443 255.012 415.455 255.006 415.462 255.003L415.469 255C415.47 255.006 415.599 255.298 422.236 270.192C428.712 284.724 428.99 285.355 429 285.384L428.974 285.397C428.957 285.404 428.933 285.414 428.905 285.426C428.848 285.451 428.767 285.488 428.664 285.533C428.456 285.623 428.156 285.753 427.769 285.919C426.995 286.252 425.869 286.733 424.424 287.34C421.533 288.555 417.357 290.278 412.157 292.341C401.765 296.462 387.221 301.96 370.599 307.471C337.877 318.319 295.167 329.886 260.083 329.999Z" fill="white"/>
</svg>
