<svg width="260" height="260" viewBox="0 0 519 334" opacity="0.15" xmlns="http://www.w3.org/2000/svg">
<path d="M515 144V194L4 194L4 144L515 144Z" fill="white"/>
<path d="M259.914 4.0009C295.203 3.87713 338.016 16.5664 370.652 28.4353C387.258 34.4748 401.785 40.5115 412.163 45.0409C417.358 47.308 421.53 49.2059 424.419 50.5433L429 52.699C428.997 52.7123 428.798 53.1339 421.771 67.838C414.577 82.8911 414.537 82.976 414.538 82.977L414.535 82.9738C414.528 82.9705 414.514 82.9629 414.496 82.9541L410.492 81.074C388.99 71.5451 375.124 65.7829 359.321 60.0356C327.133 48.3295 289.045 37.4978 260.031 37.5994C230.939 37.7014 192.791 48.5618 160.601 60.2127C144.788 65.936 130.914 71.6628 120.998 75.9555L109.404 81.1134L105.354 83H105.348C105.324 82.9464 104.914 82.0762 98.1738 67.838C91.2704 53.2544 91.0076 52.6953 91 52.6728L91.0065 52.6695L92.2315 52.0887C93.0051 51.7252 94.1298 51.1992 95.574 50.5368C102.631 47.3349 107.824 45.0869 118.198 40.5953C132.72 34.6039 149.319 28.596 181.952 16.785C224.703 4.12452 259.914 4.0009 259.914 4.0009Z" fill="white"/>
<path d="M260.083 329.999C224.926 330.112 182.159 318.518 149.434 307.617C132.803 302.077 118.253 296.539 107.856 292.383L95.5823 287.337L91.098 285.403L91 285.361L104.639 255.023L105.632 255.458C106.321 255.757 107.357 256.202 108.709 256.775C115.376 259.572 120.343 261.558 130.287 265.533C144.203 270.83 160.065 276.114 192.327 286.86C230.664 296.867 259.972 296.773 289.354 296.679C327.748 286.648 360.013 275.951 375.885 270.69C389.809 265.429 399.759 261.483 411.396 256.739L415.243 255.097L415.469 255C415.47 255.006 415.599 255.298 422.236 270.192C428.712 284.724 428.99 285.355 429 285.384L428.664 285.533L424.424 287.34C421.533 288.555 417.357 290.278 412.157 292.341C401.765 296.462 387.221 301.96 370.599 307.471C337.877 318.319 295.167 329.886 260.083 329.999Z" fill="white"/>
</svg>
